<svg width="1559" height="1563" xmlns="http://www.w3.org/2000/svg" xmlns:xlink="http://www.w3.org/1999/xlink" overflow="hidden"><defs><clipPath id="clip0"><rect x="1420" y="453" width="1559" height="1563"/></clipPath></defs><g clip-path="url(#clip0)" transform="translate(-1420 -453)"><path d="M2147.82 459.749C2264.24 451.925 2382.42 470.399 2490.6 514.204 2649.59 577.948 2785.91 695.965 2872.31 843.76 2924.22 932.05 2958.39 1030.73 2971.98 1132.23 2987.66 1248.31 2977.05 1367.98 2940.45 1479.32 2891.24 1630.23 2794.21 1764.92 2667.13 1860.06 2602.57 1908.63 2530.42 1947.12 2454.05 1973.5 2343.91 2011.68 2225.13 2024.26 2109.38 2010.74 2006.57 1998.91 1906.3 1966.01 1816.37 1914.86 1671.99 1833.13 1554.94 1704.23 1487.78 1552.56 1433.64 1431.25 1411.91 1295.89 1424.45 1163.71 1439.3 1000.03 1508.52 842.138 1618.03 719.673 1729.77 593.57 1883.29 504.967 2048.8 472.728 2081.5 466.291 2114.59 461.947 2147.82 459.749M2129.49 480.631C1995.76 492.773 1865.72 541.706 1756.94 620.34 1624.76 715.276 1524.1 853.468 1475.43 1008.83 1429.3 1154.32 1428.72 1313.81 1473.7 1459.67 1500.93 1548.46 1544.83 1632.04 1602.17 1705.1 1707.12 1839.42 1858.29 1937.07 2024.4 1976.12 2145.67 2005 2274.09 2003.38 2394.57 1971.35 2482.43 1948.09 2565.94 1908.71 2639.9 1855.93 2761.8 1769.29 2857.33 1646.09 2910.32 1506.27 2953.96 1391.92 2968.89 1266.94 2954.15 1145.5 2942.63 1049.57 2912.39 955.967 2865.68 871.393 2785.18 724.775 2654.98 606.079 2501.36 539.744 2385.04 489.109 2255.78 468.751 2129.49 480.631Z" fill="#E6E6E7" fill-rule="evenodd" fill-opacity="1"/><path d="M2157.95 489.186C2270.65 482.831 2384.77 502.053 2488.86 545.806 2643.94 610.324 2775.65 728.662 2856.7 875.612 2911.08 973.552 2942.86 1083.91 2948.83 1195.77 2954.98 1305.32 2936.86 1416.23 2895.53 1517.91 2835.76 1666.3 2726.8 1794.13 2590.17 1877.4 2503.75 1930.31 2406.44 1965.35 2306.1 1979.53 2188.24 1996.29 2066.37 1984.81 1953.96 1945.58 1798.82 1891.91 1662.84 1785.45 1572.97 1648.25 1513.38 1557.95 1473.83 1454.54 1458.09 1347.53 1435.05 1193.05 1461.47 1031.48 1533.99 893.003 1609.36 747.414 1733.81 627.872 1882.49 558.516 1968.72 518.006 2062.81 494.364 2157.95 489.186M2150.22 497.032C2092.71 500.824 2035.61 511.416 1980.53 528.493 1822.51 577.11 1682.4 680.673 1588.78 816.744 1494.87 951.585 1448.51 1118.33 1458.9 1282.23 1465.47 1394.32 1498.2 1504.73 1553.75 1602.33 1632.58 1741.8 1757.69 1854.52 1904.79 1918.22 2009.9 1964.1 2125.85 1984.7 2240.36 1978.37 2352.64 1972.49 2463.41 1940.38 2561.45 1885.4 2698.03 1809.27 2809.42 1689.05 2874.66 1547.05 2922.7 1443.3 2945.79 1328.28 2942.1 1214.07 2938.85 1106.48 2911.76 999.626 2862.91 903.648 2788.61 755.94 2663.39 634.619 2513.41 564.819 2400.71 511.939 2274.42 488.533 2150.22 497.032Z" fill="#E6E6E7" fill-rule="evenodd" fill-opacity="1"/><path d="M1996.35 569.259C1990.31 557.379 2006.97 546.28 2017.32 551.193 2023.66 560.941 2026.57 572.534 2031.64 583.01 2034.67 591.198 2040.96 600.193 2036.39 609.031 2030.37 620.65 2017.61 626.551 2006.18 631.854 1993.42 637.131 1979.03 642.642 1965.11 638.613 1955.77 635.831 1952.6 626.005 1948.98 618.155 1944.83 608.303 1939.5 598.945 1936.01 588.859 1935.35 575.628 1958.49 569.103 1962.18 583.686 1973.54 578.825 1984.89 573.912 1996.35 569.259M1968.28 598.997C1973.35 606.587 1973.91 622.73 1986.53 620.936 1996.04 619.039 2006.6 615.451 2012.17 607.081 2010.61 599.023 2006.39 591.77 2003.43 584.154 1991.71 589.093 1979.98 594.032 1968.28 598.997Z" fill="#E6E6E7" fill-rule="evenodd" fill-opacity="1"/><path d="M2463.77 570.286C2472 566.452 2484.99 571.538 2486.54 580.927 2485.02 587.733 2481.7 593.966 2479.1 600.382 2500.21 610.762 2520.43 625.263 2531.71 646.309 2537.18 656.689 2544.36 667.799 2542.78 679.978 2539.23 691.323 2521.09 684.881 2520.54 674.762 2514.46 648.969 2496.24 627.219 2473.08 614.57 2458.17 647.222 2467.48 683.838 2479.68 715.734 2484.15 728.07 2491.82 738.945 2497 750.968 2498.82 754.202 2495.93 757.514 2495.35 760.748 2482.1 762.756 2472 752.454 2466.95 741.527 2452.23 716.125 2444.26 687.228 2441.63 658.175 2417.92 682.039 2384.84 693.175 2352.66 700.451 2342.64 702.694 2325.5 698.756 2327.1 685.664 2336.86 679.039 2349.61 679.691 2360.57 675.884 2397.75 665.374 2435.3 642.527 2448.36 604.477 2421.94 598.609 2394.62 605.129 2370.51 616.161 2363.23 619.629 2348.61 614.439 2351 604.842 2358.66 594.618 2372.38 591.854 2384 588.333 2406.9 581.5 2431.64 582.909 2454.28 590.107 2457.3 583.456 2458.99 575.945 2463.77 570.286Z" fill="#E6E6E7" fill-rule="evenodd" fill-opacity="1"/><path d="M1869.25 594.604C1872.62 589.86 1878.7 587.738 1884.35 588.026 1890.67 588.235 1891.11 595.861 1894.06 600.001 1905.69 598.534 1916.76 593.267 1928.49 593.084 1935.29 594.787 1934.5 604.352 1929.25 607.391 1920.76 612.108 1910.89 613.235 1901.72 616.039 1903.49 619.891 1905.27 623.769 1907.05 627.648 1918.51 623.612 1930.01 614.178 1942.7 619.184 1942.83 623.324 1944.61 628.696 1939.78 631.002 1933.33 635.038 1925.99 637.317 1919.14 640.593 1931.11 646.149 1944.27 647.642 1957.23 648.953 1964.44 649.293 1962.71 659.801 1957.12 661.505 1941.22 669.078 1922.28 664.728 1906.21 659.565 1901.4 675.052 1892.03 688.915 1880.72 700.366 1875.52 705.188 1865.59 710.744 1860.1 703.564 1858.75 699.161 1863.27 695.754 1865.22 692.269 1874 681.709 1880.32 669.366 1884.61 656.342 1876.43 659.513 1868.78 663.942 1860.52 666.903 1855.3 668.842 1848.43 664.675 1848.45 658.936 1856.47 647.275 1871.52 644.733 1883.41 638.628 1881.92 634.723 1880.4 630.819 1878.91 626.94 1869.67 632.81 1860.71 639.702 1850.18 643.083 1844.25 645.258 1834.45 641.065 1837.61 633.622 1847.33 624.398 1860 618.974 1870.95 611.322 1869.64 605.819 1864.26 599.635 1869.25 594.604Z" fill="#E6E6E7" fill-rule="evenodd" fill-opacity="1"/><path d="M1996.52 649.084C1997.59 640.016 2005.95 633.796 2014.86 634.005 2020.77 634.188 2021.76 640.669 2023.88 644.929 2028.45 656.819 2033.88 668.422 2038.22 680.417 2041.38 689.668 2034.33 698.083 2027.67 703.571 2011.47 716.403 1992.08 724.321 1972.96 731.664 1958.95 736.316 1943.67 741.725 1928.93 737.44 1921.17 735.14 1918.51 726.882 1915.34 720.349 1910.72 709.791 1905.1 699.651 1901 688.858 1901.52 677.386 1917.38 671.61 1925.17 679.999 1948.84 669.415 1972.88 659.668 1996.52 649.084M1930.31 694.425C1931.49 696.933 1932.64 699.442 1933.82 701.951 1958.11 691.602 1982.33 681.097 2006.61 670.722 2005.56 668.135 2004.52 665.547 2003.5 662.987 1979.15 673.544 1954.72 683.945 1930.31 694.425M1938.91 717.056C1946.57 723.171 1956.44 719.329 1964.72 716.899 1977.95 712.247 1990.98 706.864 2003.11 699.782 2008.59 696.358 2016.17 691.759 2013.01 684.102 1988.24 694.921 1963.29 705.348 1938.91 717.056Z" fill="#E6E6E7" fill-rule="evenodd" fill-opacity="1"/><path d="M2194.28 697.177C2195.38 696.889 2197.56 696.288 2198.63 696 2210.8 710.905 2206.14 731.615 2211.58 748.872 2212.32 752.873 2217.08 755.174 2220.64 753.03 2231.22 749.003 2241.06 738.936 2253.25 742.545 2267.83 748.533 2277.99 764.823 2295.16 764.3 2314.4 752.455 2315 722.201 2337.35 713.833 2345.76 726.176 2339.92 742.361 2338.32 756.063 2337.88 762.339 2334.29 772.589 2342.25 775.57 2354.71 775.413 2368.14 766.235 2379.89 774.08 2390.93 783.075 2396.38 798.058 2409.96 804.229 2416.66 807.968 2423.13 801.536 2427.92 797.483 2439.75 787.128 2449.09 771.909 2465.11 767.804 2470.35 766.183 2469.54 774.054 2469.33 777.087 2467.42 794.188 2455.85 808.125 2452.73 824.912 2463.23 835.189 2481.03 824.703 2491.79 835.189 2501.29 845.047 2501.65 860.448 2511.34 870.332 2514.5 874.777 2519.77 877.863 2525.29 875.562 2544.37 869.103 2559.6 850.956 2581.2 852.839 2580.12 874.542 2558.45 886.152 2551.33 905.084 2557.22 916.485 2574.37 912.484 2582.95 921.453 2592.45 931.363 2588.55 946.555 2593.21 958.505 2595.65 964.598 2598.63 973.201 2606.77 972.573 2625.54 971.684 2642.92 960.126 2662.03 963.343 2666.48 963.264 2667.16 968.285 2664.88 971.213 2655.12 987.295 2635.93 993.596 2624.23 1007.87 2629.41 1020.87 2647.79 1021.31 2652.81 1034.6 2656.69 1047.33 2649.72 1060.41 2652.08 1073.35 2652.92 1078.06 2653.52 1084.31 2658.78 1086.27 2678.86 1093.25 2703.59 1081.74 2721.42 1096.18 2710.37 1112.49 2688.93 1113.62 2673.25 1123.19 2669.2 1124.76 2667.97 1130.25 2671.19 1133.26 2677.81 1142.38 2690.06 1149.23 2689.69 1161.89 2687.96 1177.63 2673.7 1192.35 2680.09 1208.56 2697.1 1223.1 2724.79 1217.22 2740 1235.37 2726.1 1249.8 2704.01 1244.47 2686.45 1249.85 2683.17 1250.64 2681.26 1252.73 2680.74 1256.15 2684.01 1267.69 2694.98 1277.2 2692.65 1290.04 2689.38 1301.78 2678.41 1309.16 2673.62 1320.17 2671.21 1325.89 2667.81 1333.4 2673.59 1338.39 2686.97 1350.84 2706.57 1354.94 2718.25 1369.56 2721.08 1372.44 2721.83 1377.98 2716.63 1378.48 2700.08 1382.9 2683.49 1375.86 2666.95 1375.6 2662.21 1374.79 2657.86 1379.39 2659.43 1384.07 2660.9 1395.39 2668.05 1408.44 2660.17 1418.93 2651.22 1429.28 2636.95 1434.62 2630.88 1447.59 2626.43 1454.33 2632.92 1461.32 2637.26 1466.18 2648.49 1478.76 2665.48 1489.01 2667.63 1507.21 2648.21 1510.45 2632.32 1496.9 2614.57 1492.17 2611.09 1490.63 2607.87 1492.01 2606.14 1495.23 2602.92 1506.79 2608.21 1521.27 2598.84 1530.77 2589.44 1538.85 2575.99 1539.76 2566.49 1547.76 2562.22 1551.08 2556.67 1555.5 2558.64 1561.7 2563.98 1580.34 2580.78 1594.36 2582.09 1614.39 2581.64 1615.49 2580.73 1617.66 2580.28 1618.76 2559.92 1617.66 2548.56 1597.31 2530.97 1589.84 2529.66 1590.18 2527.09 1590.83 2525.79 1591.17 2519.01 1601.45 2520.79 1616.93 2509.35 1624.09 2498.2 1629.92 2484.69 1627.07 2473.31 1632.41 2468.65 1634.52 2462.39 1636.9 2462.13 1642.97 2461.68 1663.21 2476.39 1682.38 2470.24 1702.72L2468.23 1704.6C2448.83 1698.4 2443.28 1675.84 2428.29 1664.18 2425.3 1661.35 2420.88 1664.7 2419.31 1667.5 2412.5 1676.57 2408.21 1690.72 2395.12 1692.02 2380.49 1692.68 2364.89 1685.75 2350.99 1693.1 2345.44 1698.27 2346.12 1706.59 2345.73 1713.49 2345.97 1728.79 2347.75 1745.18 2339.79 1759.04 2319.69 1749.68 2321.78 1722.85 2308.41 1707.77 2305.05 1707.01 2302.2 1707.82 2299.87 1710.25 2291.26 1717 2284.09 1728.66 2271.68 1727.61 2258.96 1725.94 2248.31 1716.81 2235.19 1716.6 2230.48 1715.74 2224.96 1716.89 2222.6 1721.49 2212.55 1739.43 2215.64 1764.17 2198.39 1778 2186.69 1765.42 2188.63 1747.09 2186.01 1731.38 2185.02 1726.49 2184.42 1718.56 2177.66 1718.93 2165.81 1722.38 2155.54 1734.1 2142.27 1730.17 2129.58 1724.87 2121.07 1712.16 2107.17 1709.18 2100.71 1705.91 2095 1711.66 2091.65 1716.53 2081.18 1731.17 2075.95 1750.86 2058.96 1759.75 2049.77 1746.91 2055.98 1730.31 2057.6 1716.08 2057.89 1709.94 2061.11 1701.2 2054.48 1697.38 2041.82 1696.73 2028.44 1706.51 2016.37 1699.03 2005.38 1690.74 2000.51 1676.2 1987.92 1669.67 1983.97 1666.32 1978.32 1666.97 1974.44 1670.03 1961.15 1679.32 1952.56 1694.09 1938.27 1702.14 1934.68 1704.73 1930.23 1704.97 1925.99 1704.47 1924.4 1683.87 1939.63 1667.68 1942.51 1648.17 1936.04 1638.81 1922.2 1645.24 1912.75 1642.03 1897.23 1638.68 1896.36 1620.19 1889.22 1608.92 1885.24 1603.2 1880.08 1594.39 1871.81 1596.87 1852.21 1602.88 1837.05 1621.27 1815.19 1620.19 1814.96 1598.96 1836.11 1587.32 1843.96 1569.49 1845.71 1564.65 1840.17 1561.8 1836.34 1560.86 1826.69 1557.31 1813.68 1556.42 1808.86 1545.78 1803.55 1531.32 1807.13 1513.09 1794.99 1501.53 1773.31 1496.75 1752.64 1515.52 1730.68 1508.51 1727.38 1503.36 1733.08 1498.68 1735.99 1494.89 1745.96 1483.15 1761.8 1477.89 1770.65 1465.13 1771.22 1458.81 1764.42 1456.53 1760.23 1453.55 1752.48 1448.95 1742.87 1443.85 1741.88 1433.83 1741.07 1419.87 1747.11 1405.7 1742.06 1391.97 1740.23 1385.98 1733.08 1384.8 1727.72 1384.41 1710.16 1383.05 1691.07 1387.6 1675 1378.22 1683.69 1356.96 1713.48 1361.09 1726.72 1344.95 1723.56 1332.51 1707.59 1327.17 1706.26 1313.65 1705.52 1301.31 1714.55 1291.22 1716.54 1279.35 1717.54 1272.97 1719 1264.13 1711.8 1260.76 1696.6 1252.75 1678.22 1253.25 1663.46 1244.13 1659.98 1242.35 1657.88 1238.97 1656 1235.73 1672.62 1223.08 1694.97 1228.99 1713.11 1221.17 1713.61 1220.02 1714.63 1217.72 1715.13 1216.57 1711.78 1205.06 1700.73 1195.46 1703.19 1182.65 1706.57 1170.81 1717.75 1163.35 1722.41 1152.08 1724.47 1146.75 1727.72 1139.9 1722.82 1135.09 1708.24 1120.18 1682.57 1117.2 1674.09 1096.31 1691.34 1088.33 1709.71 1096.52 1727.46 1097.09 1731.38 1097.64 1736.54 1095.97 1736.59 1091.26 1736.07 1079.42 1728.03 1067.05 1734.45 1055.59 1742.74 1044.01 1758.03 1039.17 1764.55 1025.97 1769.1 1020.11 1764.44 1013.1 1760.33 1008.55 1749.39 995.584 1732.59 985.883 1728.5 968.363L1729.92 965.775C1750.46 961.539 1766.85 980.365 1786.56 980.732 1795.56 971.893 1787.21 956.413 1794.02 945.928 1801.32 934.579 1816.56 934.318 1826.84 926.866 1831.87 923.022 1839.33 918.367 1837.13 910.863 1831.06 891.33 1813.34 876.19 1813.28 854.591 1835.48 852.865 1847.08 876.582 1866.18 883.354 1879.03 876.503 1872.96 855.036 1887.2 848.263 1901.47 842.301 1919.32 846.066 1931.62 835.006 1937.01 825.095 1930.7 813.668 1928.56 803.601 1925.81 792.122 1919.81 777.949 1927.9 767.438 1946.96 775.544 1953 797.326 1968.47 809.406 1969.7 809.276 1972.14 809.014 1973.34 808.883 1982.5 800.097 1985.25 783.702 1999.36 780.931 2013.34 779.545 2027.42 786.186 2041.24 781.323 2048.67 779.623 2049.64 770.628 2049.88 764.352 2051.11 747.33 2046.37 728.241 2056.94 713.284 2075.06 724.188 2074.51 748.245 2086.36 763.803 2087.65 764.195 2090.24 764.98 2091.52 765.372 2102.65 759.724 2108.9 745.264 2122.67 745.029 2136.44 746.205 2147.8 756.508 2161.91 756.299 2166.9 757.371 2171.69 754.573 2173.87 750.128 2182.48 733.209 2180.99 711.794 2194.28 697.177M2155.36 792.541C2049.17 802.268 1947.46 852.107 1874.27 929.507 1822.84 983.451 1785.22 1050.47 1766.4 1122.59 1741.36 1216.75 1748.27 1319.09 1786.32 1408.84 1823.02 1496.41 1888.51 1571.56 1970.28 1619.88 2054.75 1670.35 2156.28 1691.14 2253.86 1678.77 2345.02 1667.55 2432.11 1626.91 2499.66 1564.76 2566.28 1503.94 2613.76 1422.43 2633.29 1334.34 2654.28 1241.8 2644.8 1142.56 2605.99 1055.88 2568.37 970.795 2503.35 898.155 2422.89 851.349 2342.85 804.281 2247.76 783.676 2155.36 792.541Z" fill="#E6E6E7" fill-rule="evenodd" fill-opacity="1"/><path d="M2733.1 803C2744.49 807.368 2751.78 817.567 2760.42 825.648 2772.38 837.339 2783.38 850.389 2797.58 859.516 2801.22 857.816 2804.92 856.09 2808.6 854.338 2815.63 858.549 2821.3 865.61 2821.9 873.979 2819.72 878.32 2815.5 881.119 2812.43 884.78 2818.57 908.867 2828.38 931.829 2836.49 955.288 2837.44 959.42 2840.06 966.455 2834.89 968.757 2828.72 971.45 2823.79 965.592 2821.53 960.623 2815.79 948.488 2811.9 935.595 2806.94 923.146 2801.77 931.306 2798.1 940.486 2798.28 950.293 2797.84 955.89 2798.13 964.808 2790.46 965.174 2780.2 962.506 2779 950.084 2778.45 941.27 2767 942.368 2756.77 936.798 2748.24 929.815 2750.81 947.076 2751.52 965.697 2743.44 981.703 2737.33 993.837 2727.64 1004.32 2715.86 1011.15 2706.83 1015.07 2700.11 1004.56 2698.72 997.002 2697.1 990.882 2703.29 987.849 2706.99 984.37 2718.54 974.876 2728.01 962.035 2730.9 947.155 2733.1 936.353 2731.08 925.343 2729.03 914.699 2708.43 902.172 2682.85 894.901 2659.2 902.825 2653.54 903.95 2647.11 909.102 2641.73 904.761 2636.24 900.367 2630.94 892.887 2633.8 885.617 2635.85 880.543 2641.6 879.183 2646.35 877.875 2672.25 870.919 2701.11 875.862 2723.26 890.874 2721.5 880.909 2721.9 870.474 2726.8 861.425 2718.75 856.221 2710.3 849.84 2707.72 840.111 2706.18 833.965 2713.94 830.068 2718.51 833.834 2728.56 841.549 2741.52 850.232 2754.49 843.72 2746.38 834.619 2735.88 827.244 2730.19 816.312 2727.51 811.552 2731 807.106 2733.1 803M2771.49 859.83C2767.5 867.571 2758.74 868.67 2751 868.958 2745.2 876.568 2739.14 885.146 2741.1 895.319 2740.34 906.251 2750.87 912.214 2759.53 915.98 2767.69 920.269 2776.06 911.116 2783.9 916.922 2787.16 910.384 2791.28 900.445 2800.7 904.185 2797.39 896.287 2795.14 887.971 2791.65 880.177 2785.37 872.959 2777.97 866.839 2771.49 859.83Z" fill="#E6E6E7" fill-rule="evenodd" fill-opacity="1"/><path d="M1638.27 826.668C1640.21 821.291 1647.23 824.998 1647.8 829.382 1649.51 839.77 1642.51 848.671 1635.99 855.848 1626.48 866.549 1614.12 874.17 1600.97 879.417 1603.3 883.593 1605.42 891.057 1611.69 889.047 1624.72 884.95 1632.57 872.709 1643.29 865.087 1651.87 864.905 1651.09 877.668 1647.23 882.627 1636.76 895.651 1623.79 908.805 1607 912.59 1595.94 915.252 1587.39 904.473 1586.28 894.398 1583.58 882.366 1588.14 867.906 1579 858.014 1579.8 850.967 1582.6 840.632 1591.36 840.762 1599.8 840.449 1598.32 851.646 1600.14 857.127 1616.4 852.821 1629.02 840.319 1638.27 826.668Z" fill="#E6E6E7" fill-rule="evenodd" fill-opacity="1"/><path d="M1673.45 876.49C1692.72 872.201 1706.11 856.737 1717.65 842 1726.67 845.327 1725.69 856.113 1721.54 862.948 1710.86 879.738 1693.75 891.512 1675.4 898.919 1678.95 902.428 1681.97 909.264 1688.12 907.99 1707.66 903.598 1718.49 884.547 1735.37 875.632 1740.15 880.622 1741.86 888.445 1737.45 894.267 1723.46 910.979 1705.37 927.691 1682.86 930.914 1671.9 931.98 1662.25 922.987 1659.99 912.824 1656.18 900.895 1660.39 885.924 1650 876.646 1651.1 871.733 1651.6 866.223 1655.42 862.506 1658.7 858.114 1667.25 857.984 1669.27 863.598 1671.16 867.705 1672.11 872.175 1673.45 876.49Z" fill="#E6E6E7" fill-rule="evenodd" fill-opacity="1"/><path d="M2296.36 896.596C2310.04 895.525 2323.86 896.23 2337.61 896.204 2341.3 895.786 2344.48 899.235 2343.87 902.893 2344.08 968.239 2343.82 1033.59 2344 1098.93 2343.92 1103.29 2344.13 1107.76 2343.29 1112.1 2339.9 1116.02 2334.3 1114.61 2329.78 1114.97 2319.21 1114.71 2308.64 1115.39 2298.13 1114.61 2294.22 1114.53 2292.79 1110.17 2293.11 1106.98 2292.97 1039.8 2293.11 972.629 2293.05 905.427 2292.82 902.161 2293.29 898.503 2296.36 896.596M2305.63 926.486C2305.6 930.171 2305.6 933.881 2305.63 937.591 2314.3 937.591 2322.99 937.591 2331.71 937.591 2331.69 933.881 2331.69 930.171 2331.71 926.486 2322.99 926.486 2314.3 926.486 2305.63 926.486M2305.63 951.961C2305.6 955.645 2305.6 959.355 2305.63 963.066 2314.3 963.066 2322.99 963.066 2331.71 963.066 2331.69 959.355 2331.69 955.645 2331.71 951.961 2322.99 951.961 2314.3 951.961 2305.63 951.961M2305.63 977.436C2305.63 980.206 2305.63 985.771 2305.63 988.54 2314.3 988.54 2322.99 988.54 2331.71 988.54 2331.71 985.771 2331.71 980.206 2331.71 977.436 2322.99 977.436 2314.3 977.436 2305.63 977.436Z" fill="#E6E6E7" fill-rule="evenodd" fill-opacity="1"/><path d="M1571.34 939.025C1569.39 923.543 1587.31 907.748 1602.34 914.678 1612.86 920.405 1611.31 934.24 1610.55 944.334 1616.85 934.946 1625.11 922.419 1638.25 924.694 1652.81 931.677 1661.62 946.557 1675.79 954.324 1687.78 962.876 1702.89 963.425 1717.03 964.105 1722.14 965.229 1721.09 972.16 1720.46 976.004 1718.91 981.077 1715.92 988.216 1709.6 988.19 1694.57 988.112 1679.49 984.216 1666.14 977.338 1659.21 987.249 1653.02 997.657 1647.12 1008.22 1652.71 1011.7 1658.84 1014.24 1664.3 1017.93 1665.43 1024.46 1664.43 1034.24 1656.75 1036.26 1646.49 1039.29 1637.15 1032.47 1629.91 1026.06 1616.82 1013.56 1605.72 998.39 1599.48 981.313 1595.81 987.798 1592.06 994.702 1585.66 998.886 1580.67 1002.13 1573.28 1002.5 1568.87 998.128 1560.58 989.603 1566.64 974.722 1557.56 966.851 1553.71 963.111 1549.33 967.975 1545.47 969.074 1538.52 960.261 1543.21 948.989 1549.04 941.039 1557.04 941.065 1566.3 941.64 1571.75 948.362 1578.05 955.736 1575.98 966.223 1579.07 974.827 1583.61 977.233 1585.13 971.296 1587 968.394 1591.01 959.214 1594.16 949.224 1593.13 939.078 1587.07 939.156 1582.85 943.471 1578.05 946.426 1573.56 947.446 1572.28 942.242 1571.34 939.025M1621.88 975.716C1626.61 967.688 1631.27 959.607 1636.34 951.787 1634.87 951.133 1631.93 949.826 1630.43 949.172 1622.46 955.553 1616.74 965.674 1621.88 975.716M1631.72 990.936C1632.66 992.453 1634.53 995.513 1635.47 997.03 1640.8 987.275 1647.12 978.018 1651.92 967.975 1651.18 966.694 1649.69 964.131 1648.95 962.85 1643.24 972.238 1637.05 981.339 1631.72 990.936Z" fill="#E6E6E7" fill-rule="evenodd" fill-opacity="1"/><path d="M2369.15 931.649C2383.14 930.548 2397.27 931.151 2411.29 931.282 2417.05 931.073 2417.21 937.388 2416.92 941.58 2416.6 998.311 2417.44 1055.09 2416.49 1111.83 2415.73 1112.45 2414.22 1113.76 2413.46 1114.39 2399.38 1115.34 2385.17 1115 2371.07 1114.6 2366.98 1114.76 2365.63 1110.12 2366.08 1106.9 2366 1051.74 2366.11 996.608 2366.03 941.449 2366.21 937.99 2365.42 933.614 2369.15 931.649M2378.28 951.433C2378.26 955.128 2378.26 958.849 2378.28 962.569 2387.05 962.569 2395.87 962.569 2404.66 962.569 2404.66 958.849 2404.66 955.128 2404.66 951.433 2395.87 951.433 2387.08 951.433 2378.28 951.433M2378.28 976.981C2378.26 980.676 2378.26 984.397 2378.26 988.118 2387.05 988.118 2395.87 988.118 2404.66 988.118 2404.64 984.397 2404.66 980.676 2404.66 976.981 2395.87 976.981 2387.05 976.981 2378.28 976.981Z" fill="#E6E6E7" fill-rule="evenodd" fill-opacity="1"/><path d="M2073.96 967.125C2099.95 937.921 2146.38 930.234 2180.3 949.87 2188.54 954.393 2195.75 960.537 2202.44 967.125 2221.23 967.282 2240.04 966.864 2258.82 967.282 2265.09 967.047 2271.15 972.407 2270.89 978.813 2271.02 1020.44 2271.07 1062.06 2270.86 1103.68 2270.89 1111.14 2263.12 1115.84 2256.25 1114.87 2176.63 1114.8 2097.01 1115.01 2017.4 1114.77 2010.26 1115.21 2004.41 1108.44 2005.07 1101.57 2004.99 1061.38 2005.02 1021.22 2005.07 981.035 2004.31 974.002 2010 966.838 2017.4 967.282 2036.23 966.864 2055.09 967.282 2073.96 967.125M2122.98 966.08C2092.74 973.218 2071.33 1005.38 2077.31 1035.94 2082.11 1068.44 2116.3 1092.78 2148.72 1086.19 2181.12 1081.28 2205.36 1047.44 2198.85 1015.29 2193.81 981.218 2156.41 956.537 2122.98 966.08Z" fill="#E6E6E7" fill-rule="evenodd" fill-opacity="1"/><path d="M2100.11 1003.57C2111.04 983.908 2136.99 976.969 2157.16 985.741 2153.39 989.223 2148.6 992.365 2147.34 997.68 2144.12 1007.94 2153.63 1019.36 2164.31 1018.13 2170.83 1018.08 2175.05 1012.55 2179.35 1008.44 2183.36 1022.08 2183.46 1037.66 2175.18 1049.78 2164.29 1067.67 2139.9 1074.89 2120.86 1066.54 2096.89 1057.22 2086.36 1025.3 2100.11 1003.57Z" fill="#E6E6E7" fill-rule="evenodd" fill-opacity="1"/><path d="M1966.37 1150.26C1961.99 1143.79 1968.89 1135.86 1975.99 1137.14 2132.31 1137.11 2288.59 1137.03 2444.88 1137.19 2452.53 1135.99 2458.17 1145.49 2453.01 1151.41 2415.72 1203.67 2378.25 1255.79 2340.91 1308 2253.66 1307.97 2166.4 1308.03 2079.13 1307.97 2072.55 1298.74 2065.96 1289.53 2059.36 1280.37 2073.07 1256.08 2086.99 1231.95 2100.71 1207.68 2107.29 1196.96 2104.41 1181.8 2094.18 1174.42 2085.63 1168.05 2076.27 1160.07 2064.76 1162 2055.32 1162.78 2048.63 1170.06 2043.1 1176.95 2032.66 1189.21 2022.09 1201.37 2011.6 1213.58 1996.53 1192.47 1981.16 1171.55 1966.37 1150.26Z" fill="#E6E6E7" fill-rule="evenodd" fill-opacity="1"/><path d="M2494.25 1143.48C2494.83 1136.7 2503.06 1138.26 2507.83 1138 2512.61 1138.29 2520.99 1136.56 2521.6 1143.45 2522.45 1159.01 2521.63 1174.62 2522 1190.2 2521.76 1195.5 2522.63 1201.11 2520.41 1206.14 2516.46 1208.81 2508.28 1209.2 2507.2 1203.3 2506.17 1186.36 2506.96 1169.32 2506.86 1152.35 2501.39 1151.94 2492.4 1151.28 2494.25 1143.48Z" fill="#E6E6E7" fill-rule="evenodd" fill-opacity="1"/><path d="M2055.72 1178.4C2060.62 1171.51 2070.93 1169.83 2077.64 1175.1 2083.6 1179.42 2091.6 1183.01 2093.54 1190.78 2094.95 1195.79 2092.91 1200.79 2090.36 1205.03 2053.07 1270.66 2015.81 1336.32 1978.62 1402 1970.49 1370.89 1939.07 1348.89 1907 1351.59 1918.98 1337.97 1930.6 1324.03 1942.48 1310.34 1939.89 1299.1 1950.87 1286.06 1962.49 1286.9 1993.73 1250.86 2024.57 1214.48 2055.72 1178.4Z" fill="#E6E6E7" fill-rule="evenodd" fill-opacity="1"/><path d="M2502.55 1214.02C2511.52 1211.39 2522.44 1213.81 2528.17 1221.65 2538.7 1238.11 2538.96 1262.56 2526.81 1278.23 2516.78 1288.59 2496.58 1287.01 2489.57 1273.81 2482.87 1261.19 2482.69 1245.81 2486.5 1232.27 2488.69 1224.14 2494.19 1216.39 2502.55 1214.02M2505.34 1227.59C2499.08 1233.27 2499.71 1242.73 2499.53 1250.49 2500 1257.35 2499.79 1265.82 2505.5 1270.63 2510.5 1274.47 2517.09 1269.76 2518.29 1264.4 2520.93 1254.62 2520.95 1243.94 2518.53 1234.14 2517.38 1228.38 2510.66 1224.04 2505.34 1227.59Z" fill="#E6E6E7" fill-rule="evenodd" fill-opacity="1"/><path d="M2494.08 1297.52C2493.07 1289.86 2502.33 1289.83 2507.51 1290.07 2512.85 1289.91 2522.27 1289.39 2521.77 1297.28 2521.93 1316.64 2522.3 1336.07 2521.55 1355.4 2521.05 1362.88 2507.33 1362.9 2506.98 1355.27 2506.27 1338.34 2506.88 1321.35 2506.74 1304.39 2501.93 1303.95 2493.55 1304.61 2494.08 1297.52Z" fill="#E6E6E7" fill-rule="evenodd" fill-opacity="1"/><path d="M2079.02 1323.03C2093.35 1323 2107.65 1323 2121.98 1323 2122.01 1359.33 2122.01 1395.63 2121.98 1431.96 2110.03 1431.8 2098.05 1432.22 2086.1 1431.83 2082.51 1432.22 2078.86 1429.04 2079.12 1425.45 2078.86 1391.3 2079.12 1357.15 2079.02 1323.03Z" fill="#E6E6E7" fill-rule="evenodd" fill-opacity="1"/><path d="M2156 1323C2209 1323 2262 1323 2315 1323 2315 1359.34 2315 1395.66 2315 1432 2262 1432 2209 1432 2156 1432 2156 1395.66 2156 1359.34 2156 1323Z" fill="#E6E6E7" fill-rule="evenodd" fill-opacity="1"/><path d="M2326.07 1432C2325.97 1395.68 2325.99 1359.35 2326.04 1323 2331 1323.03 2335.98 1323.03 2340.97 1323.05 2340.84 1356.92 2341.22 1390.78 2340.79 1424.64 2341.02 1433.05 2331.42 1431.69 2326.07 1432Z" fill="#E6E6E7" fill-rule="evenodd" fill-opacity="1"/><path d="M1893.34 1364.91C1911.88 1359.03 1933.44 1362 1948.73 1374.35 1963.62 1385.89 1971.57 1404.93 1970.97 1423.55 1970.78 1457.86 1942.79 1490.06 1908.34 1493.5 1882.84 1497.04 1856.26 1481.46 1847.44 1457.23 1832.78 1420.75 1856.05 1375.98 1893.34 1364.91Z" fill="#E6E6E7" fill-rule="evenodd" fill-opacity="1"/><path d="M2500.93 1367.63C2510.77 1363.79 2523.19 1366.82 2529.14 1375.79 2538.3 1391.41 2538.43 1412.83 2528.67 1428.22 2519.3 1441.02 2496.08 1439.69 2489.11 1425.11 2483.03 1413.12 2482.77 1398.82 2486.24 1386.05 2488.28 1378.3 2493 1370.5 2500.93 1367.63M2505.87 1380.19C2498.51 1386.05 2499.73 1396.77 2499.6 1405.11 2500.15 1411.74 2500.44 1420.91 2507.72 1423.89 2514.58 1425.63 2518.65 1418.53 2519.36 1412.81 2520.53 1403.97 2521.03 1394.65 2518.29 1386.07 2516.93 1380.99 2510.77 1377.19 2505.87 1380.19Z" fill="#E6E6E7" fill-rule="evenodd" fill-opacity="1"/><path d="M2007.89 1450.3C2141.4 1449.89 2274.94 1450.28 2408.46 1450.12 2416.98 1448.97 2425.15 1456.19 2424.84 1464.83 2425.08 1495.41 2425.02 1525.98 2424.87 1556.53 2425.36 1565.25 2417.24 1572.79 2408.59 1571.87 2276.49 1571.87 2144.36 1571.85 2012.27 1571.87 2003.17 1573.1 1994.54 1565.33 1995.1 1556.14 1994.99 1525.8 1994.94 1495.46 1995.12 1465.12 1994.91 1457.95 2000.52 1450.8 2007.89 1450.3M2013.52 1463.58C2008.02 1464.7 2009.3 1471.19 2009.07 1475.33 2009.3 1500.67 2008.86 1526.06 2009.28 1551.4 2009.09 1555.56 2013.68 1558.89 2017.67 1558.39 2146.12 1558.47 2274.57 1558.47 2403.03 1558.39 2408.4 1559.07 2412.52 1553.73 2411.5 1548.65 2411.39 1522.34 2411.84 1495.98 2411.26 1469.7 2410.55 1463.13 2402.98 1462.87 2397.92 1463.18 2269.8 1463.52 2141.64 1462.74 2013.52 1463.58Z" fill="#E6E6E7" fill-rule="evenodd" fill-opacity="1"/><path d="M2038.1 1495.71C2039.09 1490.38 2039.56 1482.63 2046.44 1481.87 2061.34 1480.26 2076.39 1481.43 2091.36 1481.15 2097.15 1481.07 2105.45 1481.8 2106.68 1488.9 2107.88 1495.79 2109.1 1505.7 2101.44 1509.37 2088.5 1516.96 2074.98 1523.65 2061.96 1531.16 2072.38 1531.11 2082.82 1531.45 2093.21 1530.88 2098.29 1526.61 2105.04 1528.64 2111 1528.41 2110.97 1534.16 2108.68 1541.57 2101.65 1541.52 2080.48 1542.48 2059.2 1541.67 2038 1541.88 2038.47 1536.11 2037.71 1528.51 2044.04 1525.65 2059.46 1516.75 2075.32 1508.61 2090.84 1499.9 2090.82 1497.95 2090.76 1494.1 2090.74 1492.15 2079.28 1492.17 2067.82 1492.17 2056.39 1492.17 2052.71 1498.68 2044.07 1494.7 2038.1 1495.71Z" fill="#E6E6E7" fill-rule="evenodd" fill-opacity="1"/><path d="M2139.23 1482.75C2147.27 1480.09 2155.96 1481.37 2164.28 1481.11 2176.65 1481.47 2189.12 1480.22 2201.43 1481.91 2207.53 1482.49 2210.15 1488.55 2209.84 1494.02 2209.78 1507.03 2210.44 1520.13 2209.44 1533.11 2209.13 1539.96 2201.43 1542.12 2195.74 1541.91 2179.17 1541.94 2162.6 1542.15 2146.03 1541.81 2140.6 1541.89 2134.06 1539.26 2133.74 1533.09 2132.48 1520.93 2133.22 1508.67 2133.17 1496.49 2133.4 1491.57 2133.53 1484.59 2139.23 1482.75M2154.67 1492.64C2151.34 1504.27 2153.51 1517.65 2153.57 1529.94 2165.25 1532.05 2177.93 1531.97 2189.67 1530.07 2190.85 1517.78 2190.01 1505.42 2190.09 1493.11 2178.38 1491.6 2166.43 1491.83 2154.67 1492.64Z" fill="#E6E6E7" fill-rule="evenodd" fill-opacity="1"/><path d="M2235 1486.16C2247.41 1483.17 2259.85 1478.41 2272.87 1480.53 2273.34 1481.08 2274.26 1482.15 2274.73 1482.7 2275.3 1502.43 2274.75 1522.22 2274.96 1542 2268.28 1541.97 2261.63 1541.97 2254.98 1542 2254.9 1525.83 2255.14 1509.67 2254.82 1493.5 2248.2 1494.76 2241.6 1496.2 2235.03 1497.61 2235 1493.79 2235 1489.96 2235 1486.16Z" fill="#E6E6E7" fill-rule="evenodd" fill-opacity="1"/><path d="M2309 1495.53C2309.68 1489.42 2311.63 1481.54 2319.23 1481.62 2335.92 1480.89 2352.74 1480.66 2369.37 1481.75 2379.08 1482.55 2379.11 1494.41 2378.09 1501.67 2377.96 1506.3 2373.56 1508.82 2370.02 1510.87 2357.71 1517.74 2345.21 1524.24 2332.95 1531.18 2345.08 1530.4 2357.84 1533.39 2369.37 1528.58 2373.54 1527.98 2377.78 1528.35 2382 1528.45 2381.92 1534.67 2379.24 1542.05 2371.66 1541.66 2350.84 1542.31 2329.96 1541.82 2309.1 1541.87 2309.62 1536.28 2308.51 1528.87 2314.68 1525.98 2330.14 1516.83 2346.2 1508.71 2361.88 1499.92 2361.85 1498 2361.82 1494.13 2361.82 1492.2 2349.93 1492.2 2338.03 1492.2 2326.13 1492.2L2325.95 1495.84C2320.27 1495.79 2314.62 1495.71 2309 1495.53Z" fill="#E6E6E7" fill-rule="evenodd" fill-opacity="1"/><path d="M1746.7 1682.43C1746.78 1668.64 1760.37 1654.71 1774.64 1658.69 1788.49 1662.51 1797.49 1674.66 1807 1684.56 1802.77 1687.46 1798.58 1690.39 1794.48 1693.48 1794.53 1683.17 1787.87 1672.36 1777.2 1670.63 1770.25 1670.73 1764.26 1677.62 1764.84 1684.5 1765.31 1696.86 1772.37 1708.4 1770.54 1720.94 1767.61 1732.93 1753.97 1742.1 1741.78 1738.01 1728.01 1733.59 1719.65 1720.92 1710 1711 1714.1 1707.62 1718.18 1704.24 1722.18 1700.79 1723.67 1710.79 1727.96 1721.99 1737.89 1726.26 1745.55 1729.11 1753.16 1720.81 1752.08 1713.38 1751.14 1702.91 1746.67 1692.98 1746.7 1682.43Z" fill="#E6E6E7" fill-rule="evenodd" fill-opacity="1"/><path d="M2615.8 1664.6C2627.46 1656.88 2641.69 1667.69 2644.53 1679.47 2646.74 1686.19 2643.22 1692.84 2639.56 1698.31 2645.24 1693.94 2651.98 1689.44 2659.58 1690.62 2673.6 1693.47 2682.7 1710.9 2675.44 1723.67 2667.42 1738.4 2651.95 1746.73 2641.01 1759 2627.96 1742.09 2613.17 1726.6 2598.73 1710.9 2593.44 1705.09 2587.47 1699.93 2581 1695.48 2593.29 1685.96 2603.15 1673.63 2615.8 1664.6M2602.41 1687.29C2608.83 1694.88 2615.54 1702.21 2622.38 1709.43 2626.06 1705.19 2632.35 1701.21 2631.54 1694.8 2630.06 1687.32 2624.46 1680.54 2617.33 1677.77 2610.88 1677.87 2606.89 1683.55 2602.41 1687.29M2628.19 1715.9C2635.48 1723.43 2642.14 1731.86 2651.29 1737.33 2656.05 1732.96 2662.66 1728.72 2662.71 1721.47 2661.29 1713.57 2654.63 1706.24 2646.66 1704.64 2638.56 1703.81 2633.3 1710.95 2628.19 1715.9Z" fill="#E6E6E7" fill-rule="evenodd" fill-opacity="1"/><path d="M1786.16 1738.23C1797.3 1723.84 1810.84 1710.86 1818.27 1694 1823.91 1699.07 1829.86 1703.83 1836 1708.33 1816.88 1726.62 1802.5 1749.05 1784.63 1768.43 1772.43 1779.83 1755.02 1771.35 1743 1764.17 1743.84 1762.42 1745.57 1758.88 1746.41 1757.14 1752.47 1759.46 1759.63 1763.93 1765.93 1759.56 1774.3 1754.2 1779.68 1745.51 1786.16 1738.23Z" fill="#E6E6E7" fill-rule="evenodd" fill-opacity="1"/><path d="M1834.11 1722.35C1836.92 1719.26 1839.71 1716.12 1842.47 1713 1860.66 1726.37 1879.47 1738.96 1899 1750.39 1895.92 1753.35 1892.89 1756.36 1889.87 1759.4 1884.61 1753.76 1878.82 1748.7 1872.63 1744.08 1857.58 1765.47 1842 1786.68 1830.08 1810 1823.89 1805.51 1817.55 1801.28 1811 1797.36 1827.92 1777.31 1842.03 1755.19 1856.34 1733.33 1849.26 1729.05 1841.95 1725.1 1834.11 1722.35Z" fill="#E6E6E7" fill-rule="evenodd" fill-opacity="1"/><path d="M2539 1727.45C2544.38 1723.46 2549.65 1719.31 2554.77 1715 2577.87 1734.76 2600.89 1755.09 2627 1770.81 2620.3 1775.19 2613.7 1779.76 2607.36 1784.67 2600.52 1776.92 2592.78 1770.05 2584.96 1763.32 2578.73 1767.41 2572.67 1771.75 2566.8 1776.32 2570.46 1786 2574.73 1795.53 2580.83 1803.93 2575.4 1807.33 2570.2 1811.06 2565.14 1815 2561.81 1795.48 2555.76 1776.58 2550.07 1757.65 2546.74 1747.47 2544.12 1736.93 2539 1727.45M2553.63 1738.1C2556.75 1748.26 2560.12 1758.3 2563.92 1768.22 2568.75 1764.86 2573.58 1761.46 2578.26 1757.86 2570.2 1751.07 2562.05 1744.42 2553.63 1738.1Z" fill="#E6E6E7" fill-rule="evenodd" fill-opacity="1"/><path d="M1874.41 1811.18C1883.05 1791.33 1896.05 1773.27 1901.22 1752 1907.96 1755.79 1914.85 1759.34 1921.87 1762.54 1912.13 1776.71 1904.64 1792.25 1896.97 1807.61 1894.17 1813.58 1890.86 1819.52 1889.84 1826.14 1889.86 1841.5 1914.12 1849.18 1921.27 1834.43 1931.79 1815.81 1942.86 1796.85 1948.11 1775.93 1953.59 1779.08 1959.23 1781.95 1965 1784.58 1951.29 1802.22 1943.25 1823.38 1931.71 1842.34 1926.26 1851.31 1914.82 1855.07 1905.01 1851.88 1894.2 1848.62 1883.44 1843.23 1876.11 1834.43 1870.7 1827.91 1871.17 1818.57 1874.41 1811.18Z" fill="#E6E6E7" fill-rule="evenodd" fill-opacity="1"/><path d="M2471 1768.02C2477.71 1764.62 2484.29 1760.95 2490.68 1757 2501.4 1780.5 2513.36 1803.78 2528.44 1824.79 2537.64 1821.07 2545.63 1814.88 2551.66 1807 2553.04 1811.45 2554.47 1815.84 2556 1820.31 2541.54 1827.72 2527.32 1835.58 2513.43 1844 2506.62 1826.37 2497 1810.07 2487.9 1793.58 2482.93 1784.64 2477.68 1775.8 2471 1768.02Z" fill="#E6E6E7" fill-rule="evenodd" fill-opacity="1"/><path d="M2382 1803.77C2399.3 1798.18 2416.28 1791.72 2433.15 1785 2433.94 1789.02 2434.76 1793.03 2435.63 1797.1 2425.35 1798.36 2415.43 1801.38 2405.73 1804.82 2408.63 1814.12 2411.95 1823.31 2415.41 1832.42 2422.5 1829.63 2429.51 1826.56 2436.32 1823.1 2437.26 1827.03 2438.27 1830.97 2439.37 1834.91 2432.28 1836.14 2425.32 1838.01 2418.54 1840.34 2422.63 1849.72 2424 1861.01 2431.75 1868.25 2443.41 1867.07 2453.56 1860.19 2462.37 1852.92 2462.87 1857.78 2463.29 1862.63 2464 1867.52 2446.86 1873 2430.07 1879.41 2413.38 1886 2409.71 1870.98 2404.46 1856.41 2399.03 1841.95 2394.1 1828.9 2390.09 1815.27 2382 1803.77Z" fill="#E6E6E7" fill-rule="evenodd" fill-opacity="1"/><path d="M1997.3 1798C2005.57 1801.05 2013.97 1803.68 2022.58 1805.63 2022.19 1817.1 2024.35 1828.41 2026.7 1839.58 2034.55 1831.61 2042.02 1823.15 2047.26 1813.18 2053.1 1815.12 2059.03 1816.83 2065 1818.38 2052.24 1828.25 2040.63 1839.48 2028.81 1850.39 2032.55 1868.02 2035.81 1885.8 2041.28 1903 2033.09 1900.16 2024.82 1897.63 2016.42 1895.61 2016.79 1883.51 2014.28 1871.59 2011.86 1859.84 2003.66 1868.49 1995.21 1877.04 1988.95 1887.3 1983.03 1885.32 1977.05 1883.56 1971 1882.04 1984.93 1872.28 1996.85 1860.02 2009.46 1848.63 2005.73 1831.69 2003.14 1814.39 1997.3 1798Z" fill="#E6E6E7" fill-rule="evenodd" fill-opacity="1"/><path d="M2329.09 1822.39C2341.43 1811.12 2358.81 1809.96 2374.38 1807 2374.77 1812.84 2375.37 1818.62 2376.14 1824.45 2364.3 1815.71 2342.9 1817.67 2338.78 1833.96 2335.96 1850.54 2340.26 1868.68 2349.54 1882.57 2360.55 1896.99 2381.77 1887.98 2390.99 1875.92 2391.25 1881.06 2391.59 1886.24 2392 1891.44 2377.13 1897.7 2360.26 1904.41 2344.17 1899.05 2329.79 1893.5 2323.45 1877.45 2320.62 1863.22 2317.54 1849.35 2318.08 1832.59 2329.09 1822.39Z" fill="#E6E6E7" fill-rule="evenodd" fill-opacity="1"/><path d="M2104.18 1825C2111.54 1826.28 2118.97 1827.22 2126.42 1827.85 2121.18 1849.71 2118.99 1872.14 2116.54 1894.42 2116.85 1897.95 2114.59 1904 2118.94 1905.75 2127.8 1908.34 2137.19 1906.88 2146 1904.89 2144.41 1909.18 2142.92 1913.6 2141.46 1918 2125.35 1915.46 2109.19 1913.37 2093 1911.72 2097.22 1896.59 2099.26 1880.96 2101.24 1865.41 2102.91 1852.01 2105.04 1838.56 2104.18 1825Z" fill="#E6E6E7" fill-rule="evenodd" fill-opacity="1"/><path d="M2283.64 1825.95C2289.28 1825.4 2294.98 1824.84 2300.63 1824 2300.34 1853.27 2303.87 1882.44 2308 1911.37 2302.82 1912.16 2297.68 1913.11 2292.55 1914.14 2277.7 1894.03 2263.82 1873.2 2249.79 1852.51 2251.85 1874.23 2254.62 1895.96 2260.24 1917.05 2254.44 1917.52 2248.69 1918.21 2242.97 1919 2242.81 1889.67 2241.89 1859.74 2234 1831.39 2241.82 1830.78 2249.66 1829.94 2257.45 1828.83 2267.8 1848.07 2281.13 1865.42 2293.44 1883.37 2291.3 1864.07 2289.36 1844.56 2283.64 1825.95Z" fill="#E6E6E7" fill-rule="evenodd" fill-opacity="1"/><path d="M2171.27 1863.91C2174.67 1853.24 2179.17 1842.82 2180.55 1831.63 2187.31 1831.57 2194.07 1831.39 2200.83 1831 2207.75 1860.67 2214.14 1890.84 2226 1919 2217.94 1918.43 2209.88 1918.14 2201.85 1918.4 2200.91 1908.09 2198.86 1897.94 2196.52 1887.89 2189.05 1887.45 2181.62 1887.21 2174.18 1887.58 2171.42 1897.47 2169.27 1907.62 2169.01 1917.96 2162.66 1917.67 2156.32 1917.62 2150 1917.64 2158.58 1900.37 2164.82 1882.05 2171.27 1863.91M2176.62 1879.2C2182.5 1879.44 2188.43 1879.49 2194.36 1879.54 2191.89 1869.21 2189.21 1858.95 2186.27 1848.77 2182.73 1858.82 2179.51 1868.95 2176.62 1879.2Z" fill="#E6E6E7" fill-rule="evenodd" fill-opacity="1"/><path d="M2058.98 1866C2067.26 1868.08 2075.59 1869.83 2084 1871.24 2083.34 1874.45 2082.68 1877.71 2082.02 1881 2073.72 1879.05 2065.38 1877.3 2057 1875.84 2057.66 1872.55 2058.32 1869.26 2058.98 1866Z" fill="#E6E6E7" fill-rule="evenodd" fill-opacity="1"/></g></svg>